<?xml version="1.0" encoding="UTF-8" standalone="no"?>
<!DOCTYPE svg PUBLIC "-//W3C//DTD SVG 1.1//EN" "http://www.w3.org/Graphics/SVG/1.1/DTD/svg11.dtd">
<svg width="100%" height="100%" viewBox="0 0 887 157" version="1.1" xmlns="http://www.w3.org/2000/svg" xmlns:xlink="http://www.w3.org/1999/xlink" xml:space="preserve" xmlns:serif="http://www.serif.com/" style="fill-rule:evenodd;clip-rule:evenodd;stroke-linejoin:round;stroke-miterlimit:2;">
    <g transform="matrix(1,0,0,1,-713.921,-1429.61)">
        <g transform="matrix(4.16667,0,0,4.16667,0,0)">
            <g transform="matrix(0.48601,0,0,0.48601,142.72,186.003)">
                <path d="M496.451,330.688L496.451,324L474.75,324L474.75,330.688C477.285,331.568 477.047,332.976 477.047,334.384L477.047,341.028L476.889,341.028L465.088,324L442.12,324L442.12,330.688C444.655,331.568 444.417,332.976 444.417,334.384L444.417,351.324C444.417,352.726 444.648,354.127 442.148,355.008C439.809,354.592 439.021,352.504 438.628,351.324L428.728,324L398.632,324L389.682,350.752C389.052,352.196 388.81,354.117 386.548,355.003C384.06,354.122 384.29,352.724 384.29,351.324L384.29,334.384C384.29,332.976 384.052,331.568 386.586,330.688L386.586,324L360.609,324L353.481,339.444L353.323,339.444L346.353,324L319.663,324L319.663,330.688C322.197,331.568 321.959,332.976 321.959,334.384L321.959,351.324C321.959,352.725 322.19,354.126 319.693,355.007C317.126,354.423 317.121,352.592 317.121,351.324L317.121,349.168C317.121,345.34 314.903,343.756 308.25,342.876L308.25,342.788C316.171,341.688 318.388,338.08 318.388,333.944C318.388,330.512 316.487,327.3 310.943,325.496C306.35,323.956 299.776,324 294.549,324L214.391,324L214.391,330.244C213.483,328.343 211.645,326.641 208.392,325.54C203.798,323.956 197.045,324 191.738,324L161.009,324L161.009,330.468C158.083,324.813 148.98,323.252 136.752,323.252C122.108,323.252 111.964,325.502 111.528,334.332C111.363,331.186 110.365,328.253 105.461,326.112C100.629,324.044 93.976,324 88.194,324L58.89,324L58.89,330.688C61.346,331.26 61.504,332.36 61.583,333.68L61.583,352.028C61.504,353.304 61.267,354.448 58.89,355.02L58.89,361.708L88.828,361.708C95.243,361.708 101.263,361.488 106.094,358.936C110.484,356.647 111.358,354.228 111.521,351.274C111.882,360.19 122.051,362.456 136.752,362.456C148.98,362.456 158.083,360.895 161.009,355.239L161.009,361.708L192.689,361.708C198.629,361.708 204.806,361.664 209.637,359.464C212.095,358.367 213.556,356.819 214.391,355.137L214.391,361.708L290.906,361.708L290.906,355.02C288.371,354.14 288.609,352.732 288.609,351.324L288.609,347.012L289.48,347.012C295.262,347.1 295.816,348.596 295.816,351.588C295.578,357.88 296.133,359.64 297.004,361.708L340.571,361.708L340.571,355.02C338.037,354.14 338.275,352.732 338.275,351.324L338.275,341.204L338.433,341.204L348.095,361.708L354.748,361.708L363.935,341.204L364.094,341.204L364.094,351.324C364.094,352.732 364.331,354.14 361.797,355.02L361.797,361.708L409.878,361.708L409.878,355.02C408.057,354.756 407.107,354.008 407.107,352.952C407.107,352.6 407.265,352.204 407.423,351.852L417.64,351.852C417.798,352.204 417.957,352.556 417.957,352.952C417.957,353.964 417.165,354.668 415.502,355.02L415.502,361.708L463.187,361.708L463.187,355.02C460.653,354.14 460.891,352.732 460.891,351.324L460.891,344.768L461.049,344.768L473.642,361.708L494.155,361.708L494.155,334.384C494.155,332.976 493.917,331.568 496.451,330.688ZM90.412,350.092C90.412,352.82 88.987,353.744 84.393,353.744L82.73,353.744L82.73,332.228L84.393,332.228C88.987,332.228 90.412,333.152 90.412,335.88L90.412,350.092ZM140.87,334.296L140.87,351.368C140.87,351.632 141.108,354.316 136.752,354.316C132.396,354.316 132.633,351.632 132.633,351.368L132.633,334.296C132.633,334.032 132.396,331.392 136.752,331.392C141.108,331.392 140.87,334.032 140.87,334.296ZM163.701,352.028C163.623,353.282 163.381,354.406 161.116,354.987C161.693,353.776 162.017,352.396 162.017,350.796L162.017,334.912C162.017,333.312 161.693,331.932 161.116,330.72C163.381,331.301 163.623,332.425 163.701,333.68L163.701,352.028ZM193.322,335.22C193.322,338.036 190.946,338.608 186.273,338.608L184.848,338.608L184.848,331.832L186.273,331.832C190.709,331.832 193.322,332.448 193.322,335.22ZM193.639,349.74C193.639,352.732 191.818,353.876 186.669,353.876L184.848,353.876L184.848,345.692L186.669,345.692C191.818,345.692 193.639,346.836 193.639,349.74ZM216.688,334.384L216.688,351.324C216.688,352.717 216.911,354.107 214.463,354.989C215.082,353.679 215.34,352.295 215.34,350.972C215.34,346.572 212.33,342.7 203.618,342.084L203.618,341.996C211.221,340.808 215.124,337.86 215.124,333.548C215.124,332.614 214.951,331.682 214.607,330.78C216.887,331.664 216.688,333.022 216.688,334.384ZM267.462,334.384L267.462,351.324C267.462,352.717 267.685,354.107 265.238,354.989L265.238,348.068L245.755,348.068L245.755,349.3C245.675,352.38 245.755,353.7 239.419,353.7L238.151,353.7L238.151,346.088L251.536,346.088L251.536,338.74L238.151,338.74L238.151,332.008L239.419,332.008C245.121,332.008 245.755,333.064 245.755,335.616L245.755,336.76L265.238,336.76L265.238,330.719C267.685,331.6 267.462,332.991 267.462,334.384ZM296.766,335.528C296.766,338.168 295.341,339.488 290.747,339.488L288.609,339.488L288.609,331.788L290.747,331.788C295.341,331.788 296.766,333.108 296.766,335.528ZM415.739,344.504L408.77,344.504L412.096,333.328L412.254,333.328L415.739,344.504ZM58.89,374.202L58.89,389.364C58.89,398.268 67.657,400.494 80.401,400.494C90.688,400.494 98.376,399.038 100.962,393.797L100.962,399.78L118.899,399.78L118.899,393.396C116.741,392.556 116.943,391.212 116.943,389.868L116.943,383.61L117.078,383.61L127.8,399.78L145.265,399.78L145.265,373.698C145.265,372.354 145.063,371.01 147.221,370.17L147.221,363.786L128.744,363.786L128.744,370.17C130.901,371.01 130.7,372.354 130.7,373.698L130.7,380.04L130.565,380.04L120.518,363.786L100.962,363.786L100.962,369.769C98.376,364.527 90.688,363.072 80.401,363.072C67.657,363.072 58.89,365.298 58.89,374.202ZM101.913,389.364L101.913,374.202C101.913,372.705 101.645,371.411 101.172,370.271C103.083,371.115 102.917,372.404 102.917,373.698L102.917,389.868C102.917,391.162 103.083,392.451 101.172,393.295C101.645,392.154 101.913,390.861 101.913,389.364ZM76.895,389.91L76.895,373.614C76.895,373.362 76.693,370.842 80.401,370.842C84.11,370.842 83.908,373.362 83.908,373.614L83.908,389.91C83.908,390.162 84.11,392.724 80.401,392.724C76.693,392.724 76.895,390.162 76.895,389.91ZM162.524,374.37L162.524,388.062C162.524,392.01 162.794,395.286 168.121,398.099C172.234,400.242 178.169,400.494 183.361,400.494C190.68,400.494 199.2,399.782 204.865,396.623L204.865,399.78L226.781,399.78L226.781,393.396C224.623,392.556 224.825,391.212 224.825,389.868L224.825,385.752L225.567,385.752C230.489,385.836 230.961,387.264 230.961,390.12C230.759,396.126 231.231,397.805 231.973,399.78L271.144,399.78L271.144,393.396C269.593,393.144 268.784,392.43 268.784,391.422C268.784,391.086 268.919,390.708 269.054,390.372L277.753,390.372C277.887,390.708 278.022,391.044 278.022,391.422C278.022,392.388 277.348,393.06 275.932,393.396L275.932,399.78L320.498,399.78L320.498,393.396C318.34,392.556 318.542,391.212 318.542,389.448L324.948,389.448C339.716,389.448 343.358,385.206 343.358,378.36L343.358,375.504C343.358,374.955 343.68,372.696 342.56,370.293C344.419,371.138 344.259,372.415 344.259,373.698L344.259,389.868C344.259,391.212 344.461,392.556 342.304,393.396L342.304,399.78L364.219,399.78L364.219,393.396C362.061,392.556 362.264,391.212 362.264,389.868L362.264,384.576L369.142,384.576L369.142,389.868C369.142,391.212 369.344,392.556 367.186,393.396L367.186,399.78L389.102,399.78L389.102,393.396C386.944,392.556 387.146,391.212 387.146,389.868L387.146,373.698C387.146,372.354 386.944,371.01 389.102,370.17L389.102,363.786L367.186,363.786L367.186,370.17C369.344,371.01 369.142,372.354 369.142,373.698L369.142,377.562L362.264,377.562L362.264,373.698C362.264,372.354 362.061,371.01 364.219,370.17L364.219,363.786L342.304,363.786L342.304,369.782C341.489,368.307 340.093,366.82 337.693,365.676C333.647,363.744 327.039,363.786 322.116,363.786L298.582,363.786L298.582,370.17C300.74,371.01 300.538,372.354 300.538,373.698L300.538,389.868C300.538,391.205 300.734,392.541 298.611,393.382C296.626,392.981 295.957,390.993 295.622,389.868L287.193,363.786L261.569,363.786L253.949,389.322C253.412,390.7 253.206,392.534 251.281,393.38C249.107,392.82 249.101,391.077 249.101,389.868L249.101,387.81C249.101,384.156 247.213,382.644 241.548,381.804L241.548,381.72C248.292,380.67 250.18,377.226 250.18,373.278C250.18,370.002 248.561,366.936 243.841,365.214C239.93,363.744 234.333,363.786 229.882,363.786L204.865,363.786L204.865,367.198C198.536,364.2 190.411,363.072 182.552,363.072C177.224,363.072 171.493,363.66 167.312,365.886C163.131,368.07 162.524,371.178 162.524,374.37ZM318.542,371.304L320.228,371.304C325.555,371.304 325.353,373.194 325.353,376.596C325.353,379.956 325.555,381.846 320.228,381.846L318.542,381.846L318.542,371.304ZM270.2,383.358L273.032,372.69L273.167,372.69L276.134,383.358L270.2,383.358ZM224.825,371.22L226.646,371.22C230.557,371.22 231.77,372.48 231.77,374.79C231.77,377.31 230.557,378.57 226.646,378.57L224.825,378.57L224.825,371.22ZM180.529,374.37C180.529,372.816 180.798,370.842 184.17,370.842C188.148,370.842 187.609,373.908 187.609,375.504L187.609,376.302L204.939,376.302L204.939,370.206C207.007,371.048 206.82,372.372 206.82,373.698L206.82,389.868C206.82,391.194 207.007,392.518 204.939,393.36L204.939,379.41L184.507,379.41L184.507,386.424L187.609,386.424L187.609,388.02C187.609,389.658 188.148,392.724 184.17,392.724C180.798,392.724 180.529,390.75 180.529,390.372L180.529,374.37ZM411.812,363.786L389.897,363.786L389.897,370.17C392.054,371.01 391.852,372.354 391.852,373.698L391.852,389.868C391.852,391.212 392.054,392.556 389.897,393.396L389.897,399.78L411.812,399.78L411.812,393.666C412.492,395.059 413.649,396.359 415.642,397.516C419.216,399.616 426.229,400.624 433.444,400.498C440.718,400.373 448.192,399.073 452.846,396.685L452.846,396.718C458.713,399.616 466.468,400.498 473.818,400.498C491.013,400.498 495.936,395.375 495.936,388.445L495.936,388.277C495.936,386.597 495.531,384.875 494.587,383.321C493.778,381.809 492.227,380.759 490.137,379.877C486.495,378.365 480.696,377.399 476.38,376.685C474.897,376.433 472.334,375.929 471.323,375.257C470.379,374.669 470.244,373.955 470.244,373.241C470.244,371.897 471.458,370.847 473.75,370.847C477.257,370.847 477.324,373.073 477.324,374.669L477.324,375.341L494.115,375.341L494.115,366.857C487.574,364.043 480.629,363.077 472.806,363.077C467.412,363.077 461.815,363.497 457.971,365.303C455.15,366.633 453.67,367.866 452.865,369.462L452.865,366.983C447.065,364.589 439.783,363.245 432.905,363.077C426.094,362.909 419.688,363.791 415.776,365.807C413.728,366.86 412.524,368.14 411.812,369.543L411.812,363.786ZM428.858,388.739L428.858,374.837C428.858,373.367 428.387,370.847 432.163,370.847C435.939,370.847 435.467,373.367 435.467,374.837L435.467,376.979L452.323,376.979C453.753,382.333 459.603,383.761 469.03,385.211C474.02,385.967 477.729,386.261 477.729,389.957C477.729,391.259 476.65,392.729 474.223,392.729C472.874,392.729 471.593,392.267 470.986,391.553C470.379,390.797 470.446,389.201 470.446,387.059L452.865,387.059L452.865,384.665L435.467,384.665L435.467,388.739C435.467,390.209 435.939,392.729 432.163,392.729C428.387,392.729 428.858,390.209 428.858,388.739ZM410.854,374.375L410.854,386.891C410.854,389.13 410.791,391.315 411.646,393.316C409.685,392.472 409.857,391.172 409.857,389.868L409.857,373.698C409.857,372.434 409.703,371.175 411.479,370.33C411.001,371.618 410.854,372.986 410.854,374.375Z" style="fill:rgb(255,0,0);fill-rule:nonzero;"/>
            </g>
        </g>
    </g>
</svg>
