<?xml version="1.0" encoding="UTF-8" standalone="no"?>
<!DOCTYPE svg PUBLIC "-//W3C//DTD SVG 1.1//EN" "http://www.w3.org/Graphics/SVG/1.1/DTD/svg11.dtd">
<svg width="100%" height="100%" viewBox="0 0 610 100" version="1.1" xmlns="http://www.w3.org/2000/svg" xmlns:xlink="http://www.w3.org/1999/xlink" xml:space="preserve" xmlns:serif="http://www.serif.com/" style="fill-rule:evenodd;clip-rule:evenodd;stroke-linejoin:round;stroke-miterlimit:2;">
    <g transform="matrix(4.16667,0,0,4.16667,0,0)">
        <g transform="matrix(0.335114,0,0,0.3367,-29.4961,-121.333)">
            <path d="M466.288,407.88C466.288,411 468.112,416.84 454.66,416.84C443.26,416.84 442.348,413.08 442.348,412.36L442.348,381.88C442.348,378.92 443.26,375.16 454.66,375.16C468.112,375.16 466.288,381 466.288,384.04L466.288,385.56L524.884,385.56L524.884,368.28C503.452,362.52 475.864,360.36 449.188,360.36C431.176,360.36 411.796,361.48 397.66,365.72C387.761,368.633 383.797,372.411 382.305,376.5C376.755,363.741 349.044,360.36 310.613,360.36C271.891,360.36 244.047,363.79 238.794,376.79C237.262,372.504 233.089,368.594 222.083,365.56C208.175,361.8 189.023,361.72 172.379,361.72L88.018,361.72L88.018,373.88C95.087,374.92 95.542,376.92 95.77,379.32L95.77,412.68C95.542,415 94.858,417.08 88.018,418.12L88.018,430.28L174.203,430.28C192.671,430.28 209.999,429.88 223.907,425.24C233.502,422.08 237.253,418.784 238.715,415.03C243.78,428.181 271.71,431.64 310.613,431.64C349.332,431.64 377.175,428.211 382.431,415.213C384.079,419.628 388.519,423.545 400.396,427.08C414.304,431.16 434.368,431.64 451.924,431.64C476.776,431.64 505.732,430.28 524.884,424.2L524.884,391.48L455.8,391.48L455.8,404.84L466.288,404.84L466.288,407.88ZM178.763,408.827C178.763,413.787 174.659,415.467 161.435,415.467L156.647,415.467L156.647,376.347L161.435,376.347C174.659,376.347 178.763,378.027 178.763,382.987L178.763,408.827ZM229.058,412.383C229.058,414.825 227.078,416.805 224.636,416.805C222.194,416.805 220.214,414.825 220.214,412.383C220.214,409.941 222.194,407.961 224.636,407.961C227.078,407.961 229.058,409.941 229.058,412.383ZM322.469,380.107L322.469,411.147C322.469,411.627 323.153,416.507 310.613,416.507C298.073,416.507 298.757,411.627 298.757,411.147L298.757,380.107C298.757,379.627 298.073,374.827 310.613,374.827C323.153,374.827 322.469,379.627 322.469,380.107ZM371.113,412.383C371.113,414.825 369.133,416.805 366.691,416.805C364.249,416.805 362.269,414.825 362.269,412.383C362.269,409.941 364.249,407.961 366.691,407.961C369.133,407.961 371.113,409.941 371.113,412.383ZM508.056,412.383C508.056,409.941 510.036,407.961 512.478,407.961C514.919,407.961 516.9,409.941 516.9,412.383C516.9,414.825 514.919,416.805 512.478,416.805C510.036,416.805 508.056,414.825 508.056,412.383Z" style="fill:white;fill-rule:nonzero;"/>
        </g>
    </g>
</svg>
