<?xml version="1.0" encoding="UTF-8" standalone="no"?><!DOCTYPE svg PUBLIC "-//W3C//DTD SVG 1.1//EN" "http://www.w3.org/Graphics/SVG/1.1/DTD/svg11.dtd"><svg width="611px" height="100px" version="1.1" xmlns="http://www.w3.org/2000/svg" xmlns:xlink="http://www.w3.org/1999/xlink" xml:space="preserve" xmlns:serif="http://www.serif.com/" style="fill-rule:evenodd;clip-rule:evenodd;stroke-linejoin:round;stroke-miterlimit:2;"><g transform="matrix(1,0,0,1,0.000149783,-0.000883334)"><g transform="matrix(4.16667,0,0,4.16667,0,0)"><g id="dogG" transform="matrix(0.24,0,0,0.24,0,0)"><path d="M610,11.106C580.127,3.029 541.673,0.001 504.467,0.001C479.337,0.001 452.325,1.571 432.623,7.516C412.92,13.349 410.06,21.652 410.06,30.188L410.06,66.779C410.06,77.339 411.331,86.091 436.436,93.607C455.821,99.328 483.786,100.001 508.29,100.001C542.944,100.001 583.305,98.094 610,89.569L610,43.666L513.706,43.666L513.706,62.397L528.331,62.397L528.331,66.666C528.331,71.048 530.873,79.249 512.097,79.249C496.182,79.249 494.908,73.969 494.908,72.958L494.908,30.188C494.908,26.032 496.182,20.753 512.097,20.753C530.873,20.753 528.331,28.952 528.331,33.22L528.331,35.345L610,35.345L610,11.106ZM591.151,63.698C595.373,63.698 598.802,67.127 598.802,71.349C598.802,75.572 595.373,79 591.151,79C586.928,79 583.5,75.572 583.5,71.349C583.5,67.127 586.928,63.698 591.151,63.698Z" style="fill:rgb(255,200,0);fill-rule:nonzero;"/></g></g><g transform="matrix(4.16667,0,0,4.16667,0,0)"><g id="dogO" transform="matrix(0.24,0,0,0.24,0,0)"><path d="M412,29.735C412,5.946 370.688,0.001 310.599,0.001C250.51,0.001 209.199,5.946 209.199,29.735L209.199,70.267C209.199,94.056 250.51,100.001 310.599,100.001C370.688,100.001 412,94.056 412,70.267L412,29.735ZM294.047,28.163C294.047,27.489 293.093,20.753 310.599,20.753C328.105,20.753 327.152,27.489 327.152,28.163L327.152,71.726C327.152,72.4 328.105,79.249 310.599,79.249C293.093,79.249 294.047,72.4 294.047,71.726L294.047,28.163ZM387.849,63.698C392.072,63.698 395.5,67.127 395.5,71.349C395.5,75.572 392.072,79 387.849,79C383.627,79 380.198,75.572 380.198,71.349C380.198,67.127 383.627,63.698 387.849,63.698Z" style="fill:rgb(255,200,0);fill-rule:nonzero;"/></g></g><g transform="matrix(4.16667,0,0,4.16667,0,0)"><g id="dogD" transform="matrix(0.24,0,0,0.24,0,0)"><path d="M-0,1.909L-0,18.96C9.856,20.418 10.492,23.222 10.81,26.591L10.81,73.411C10.492,76.667 9.538,79.584 -0,81.042L-0,98.093L120.17,98.093C145.922,98.093 170.073,97.532 189.458,91.026C210.114,84.183 211.385,76.891 211.385,67.46L211.385,31.419C211.385,22.213 209.16,13.463 186.916,7.294C167.531,2.021 140.837,1.909 117.623,1.909L-0,1.909ZM189.349,63.698C193.572,63.698 197,67.127 197,71.349C197,75.572 193.572,79 189.349,79C185.127,79 181.698,75.572 181.698,71.349C181.698,67.127 185.127,63.698 189.349,63.698ZM95.658,22.886L102.343,22.886C120.807,22.886 126.537,25.243 126.537,32.205L126.537,68.47C126.537,75.432 120.807,77.79 102.343,77.79L95.658,77.79L95.658,22.886Z" style="fill:rgb(255,200,0);fill-rule:nonzero;"/></g></g></g></svg>