<?xml version="1.0" encoding="UTF-8" standalone="no"?>
<!DOCTYPE svg PUBLIC "-//W3C//DTD SVG 1.1//EN" "http://www.w3.org/Graphics/SVG/1.1/DTD/svg11.dtd">
<svg width="100%" height="100%" viewBox="0 0 160 206" version="1.1" xmlns="http://www.w3.org/2000/svg" xmlns:xlink="http://www.w3.org/1999/xlink" xml:space="preserve" xmlns:serif="http://www.serif.com/" style="fill-rule:evenodd;clip-rule:evenodd;stroke-linejoin:round;stroke-miterlimit:2;">
    <g transform="matrix(1,0,0,1,1.94289e-16,-0.260417)">
        <g transform="matrix(0.260417,0,0,0.260417,0,0)">
            <g transform="matrix(0.24,0,0,0.24,-0.5,0.5)">
                <path d="M1536.46,2.083L2.083,2.083L2.083,3297.92L2547.92,3297.92L2547.92,780.657L2325,1086.21L2250,750L1875,1050L1950,600L1500,750L1800,300L1350,375L1536.46,2.083ZM2400,2825.9L2400,2444.82C2400,2347.47 2376.32,2254.87 2139.47,2189.57C1933.08,2133.78 1648.87,2132.59 1401.88,2132.59L150,2132.59L150,2313.04C254.887,2328.47 261.654,2358.15 265.038,2393.77L265.038,2888.82C261.654,2923.25 251.504,2954.12 150,2969.55L150,3150L1428.95,3150C1703.01,3150 1960.15,3144.06 2166.54,3075.21C2386.47,3002.79 2400,2925.62 2400,2825.9ZM2242.97,2889.36C2242.97,2925.59 2213.6,2954.98 2177.36,2954.98C2141.12,2954.98 2111.74,2925.59 2111.74,2889.36C2111.74,2853.12 2141.12,2823.75 2177.36,2823.75C2213.6,2823.75 2242.97,2853.12 2242.97,2889.36ZM1496.62,2836.59C1496.62,2910.19 1435.71,2935.12 1239.47,2935.12L1168.42,2935.12L1168.42,2354.59L1239.47,2354.59C1435.71,2354.59 1496.62,2379.52 1496.62,2453.13L1496.62,2836.59Z" style="fill:rgb(255,0,0);"/>
            </g>
        </g>
    </g>
</svg>
